# xmcd
#
# Track frame offsets:
#	150
#	572
#	19881
#	36726
#	55282
#	74306
#	91643
#	112529
#	135891
#	158363
#	176169
#	196935
#	219796
#	234551
#
# Disc length: 3306 seconds
#
# Revision: 83228265
# Processed by: cddbd v1.5.2PL0 Copyright (c) Steve Scherf et al.
# Submitted via: audiograbber 1.83.01
#
DISCID=a50ce80e
DTITLE=Tupac - Resurrection
DYEAR=2003
DGENRE=Rap
TTITLE0=Tupac - Intro
TTITLE1=Tupac - Ghost
TTITLE2=Tupac, Eminem, The Outlawz - One Day At A Time (Em's Version)
TTITLE3=Tupac - Death Around The Corner
TTITLE4=Tupac - Secretz Of War
TTITLE5=Tupac, The Notorious B.I.G. - Runnin' (Dying To Live) 
TTITLE6=Tupac - Holler If Ya' Hear Me
TTITLE7=Tupac - Starin' Through My Rear View
TTITLE8=Tupac - Bury Me A G
TTITLE9=Tupac - Same Song
TTITLE10=Tupac - Panther Power
TTITLE11=Tupac - Str8 Ballin'
TTITLE12=Tupac - Rebel Of The Underground
TTITLE13=Tupac, 50 Cent - The Realist Killaz 
EXTD=www.RapMusicGuide.com
EXTT0=
EXTT1=
EXTT2=
EXTT3=
EXTT4=
EXTT5=
EXTT6=
EXTT7=
EXTT8=
EXTT9=
EXTT10=
EXTT11=
EXTT12=
EXTT13=
PLAYORDER=
